# xmcd
#
# Track frame offsets: 
#        150
#        62032
#        89204
#        145996
#        192135
#        256906
#        286108
#
# Disc length: 4121 seconds
#
# Revision: 7
# Processed by: cddbd v1.5.2PL0 Copyright (c) Steve Scherf et al.
# Submitted via: ExactAudioCopy v1.0b3
#
DISCID=66101707
DTITLE=Bach, Johann Sebastian - Präludien und Fugen BWV 544-551 (Helmu
DTITLE=t Walcha, Orgel St. Peter and Paul, Cappel)
DYEAR=1950
DGENRE=Orgelwerk
TTITLE0=Präludium und Fuge C-Dur BWV 544
TTITLE1=Präludium und Fuge C-Dur BWV 545
TTITLE2=Präludium und Fuge C-Dur BWV 546
TTITLE3=Präludium und Fuge C-Dur BWV 547
TTITLE4=Präludium und Fuge C-Dur BWV 548
TTITLE5=Präludium und Fuge C-Dur BWV 550
TTITLE6=Präludium und Fuge C-Dur BWV 551
EXTD=YEAR: 1947
EXTT0=
EXTT1=
EXTT2=
EXTT3=
EXTT4=
EXTT5=
EXTT6=
PLAYORDER=
